{"nbformat":4,"nbformat_minor":0,"metadata":{"colab":{"name":"get_movie_clips.ipynb","provenance":[],"collapsed_sections":[],"authorship_tag":"ABX9TyNG6IVwNi6LT87wUm8pH7EN"},"kernelspec":{"name":"python3","display_name":"Python 3"}},"cells":[{"cell_type":"code","metadata":{"id":"rc1g1pm2K_s_","colab_type":"code","outputId":"62ce123e-44e5-42dd-fb31-a306f1d364b1","executionInfo":{"status":"ok","timestamp":1585632109562,"user_tz":300,"elapsed":24960,"user":{"displayName":"Yiran Huang","photoUrl":"","userId":"05736232613090018980"}},"colab":{"base_uri":"https://localhost:8080/","height":122}},"source":["from google.colab import drive\n","drive.mount(\"/content/drive/\", force_remount=True)"],"execution_count":1,"outputs":[{"output_type":"stream","text":["Go to this URL in a browser: https://accounts.google.com/o/oauth2/auth?client_id=947318989803-6bn6qk8qdgf4n4g3pfee6491hc0brc4i.apps.googleusercontent.com&redirect_uri=urn%3aietf%3awg%3aoauth%3a2.0%3aoob&response_type=code&scope=email%20https%3a%2f%2fwww.googleapis.com%2fauth%2fdocs.test%20https%3a%2f%2fwww.googleapis.com%2fauth%2fdrive%20https%3a%2f%2fwww.googleapis.com%2fauth%2fdrive.photos.readonly%20https%3a%2f%2fwww.googleapis.com%2fauth%2fpeopleapi.readonly\n","\n","Enter your authorization code:\n","··········\n","Mounted at /content/drive/\n"],"name":"stdout"}]},{"cell_type":"code","metadata":{"id":"X0Z4Rt6-FfQ5","colab_type":"code","colab":{}},"source":["# from google.colab import files\n","# files.upload()"],"execution_count":0,"outputs":[]},{"cell_type":"code","metadata":{"id":"mAbYQAyVK3y6","colab_type":"code","colab":{}},"source":["from pydrive.auth import GoogleAuth\n","from pydrive.drive import GoogleDrive\n","from google.colab import auth\n","from oauth2client.client import GoogleCredentials\n","auth.authenticate_user()\n","gauth = GoogleAuth()\n","gauth.credentials = GoogleCredentials.get_application_default()\n","drive = GoogleDrive(gauth)"],"execution_count":0,"outputs":[]},{"cell_type":"code","metadata":{"id":"ulpQ2UwnLHnE","colab_type":"code","outputId":"6c18d1d7-1b83-473a-8990-ec7a2fa919cd","executionInfo":{"status":"ok","timestamp":1584427664370,"user_tz":300,"elapsed":1928,"user":{"displayName":"Yiran Huang","photoUrl":"","userId":"05736232613090018980"}},"colab":{"base_uri":"https://localhost:8080/","height":51}},"source":["!ls \"/content/drive/My Drive/636/data\""],"execution_count":0,"outputs":[{"output_type":"stream","text":["clip.sh      frames_all\t\t    raw_txt    split_to_pics.ipynb  video\n","download.sh  get_movie_clips.ipynb  raw_video  txt\n"],"name":"stdout"}]},{"cell_type":"markdown","metadata":{"id":"YOABnx_tg0oE","colab_type":"text"},"source":["Generate timestamps from frames of positive data\n","\n"]},{"cell_type":"code","metadata":{"id":"4pOVJ3Viknyf","colab_type":"code","colab":{}},"source":["def toTimeStamp(frames):\n","  secs = frames / 24.0\n","  m = secs // 60\n","  s = secs % 60\n","  return int(m), round(s, 2)\n","\n","def getDuration(time):\n","  dur = time / 24.0\n","  return round(dur, 2)"],"execution_count":0,"outputs":[]},{"cell_type":"code","metadata":{"id":"t25uRVt1iStq","colab_type":"code","colab":{}},"source":["PATH = \"/content/drive/My Drive/636/data/raw_txt/\"\n","FILENAME = \"cry.txt\"\n","filepath = PATH + FILENAME"],"execution_count":0,"outputs":[]},{"cell_type":"code","metadata":{"id":"61EU8mMgLMSM","colab_type":"code","colab":{}},"source":["!rm -rf '00.txt' \n","outfile = open('00.txt', 'wt')\n","\n","with open(filepath, \"r\") as f:\n","  lines = f.readlines()\n","  for line in lines:\n","    p_frame = line.replace('\\n', '').split(' ')\n","    p0 = int(p_frame[0])\n","    p1 = int(p_frame[1])\n","    start_m, start_s = toTimeStamp(p0)\n","    duration = getDuration(p1 - p0)\n","    outfile.write('00 %02d %.2f %.2f\\n'% (start_m, start_s, duration))\n","outfile.close()"],"execution_count":0,"outputs":[]},{"cell_type":"code","metadata":{"id":"k6myYUZCgFMs","colab_type":"code","outputId":"910203de-b2ad-4904-a5d4-2f537a7353d7","executionInfo":{"status":"ok","timestamp":1584314630450,"user_tz":300,"elapsed":1753,"user":{"displayName":"Yiran Huang","photoUrl":"","userId":"05736232613090018980"}},"colab":{"base_uri":"https://localhost:8080/","height":34}},"source":["OUTFILENAME = '00.txt'\n","uploaded = drive.CreateFile({'title': OUTFILENAME})\n","uploaded.SetContentFile(OUTFILENAME)\n","uploaded.Upload()\n","print('Uploaded file with ID {}'.format(uploaded.get('id')))"],"execution_count":0,"outputs":[{"output_type":"stream","text":["Uploaded file with ID 1ldIvDs6zbi11kRbvIB5LzK4xfdGIY8B6\n"],"name":"stdout"}]},{"cell_type":"markdown","metadata":{"id":"zHUe1oGChCQk","colab_type":"text"},"source":["Generate timestamps of negative data"]},{"cell_type":"code","metadata":{"id":"9MdpGwMSijsa","colab_type":"code","colab":{}},"source":["def getDur(m0, s0, m1, s1):\n","  t0 = m0 * 60 + s0\n","  t1 = m1 * 60 + s1\n","  return t1 - t0"],"execution_count":0,"outputs":[]},{"cell_type":"code","metadata":{"id":"HYY3b5RQgRN_","colab_type":"code","colab":{}},"source":["def getTS(filepath, outname):\n","  outfile = open(outname, 'wt')\n","  with open(filepath, \"r\") as f:\n","    lines = f.readlines()\n","    for line in lines:\n","      times = line.replace('\\n', '').replace(':', ' ').split(' ')\n","      m0 = int(times[0])\n","      s0 = int(times[1])\n","      m1 = int(times[2])\n","      s1 = int(times[3])\n","      duration = getDur(m0, s0, m1, s1)\n","      outfile.write('00 %02d %.2f %02d\\n'% (m0, s0, duration))\n","  outfile.close()"],"execution_count":0,"outputs":[]},{"cell_type":"code","metadata":{"id":"MlsahpNah3qn","colab_type":"code","outputId":"a1c84b18-bdd5-4cf0-c287-c17d4ab74945","executionInfo":{"status":"ok","timestamp":1584315759941,"user_tz":300,"elapsed":9990,"user":{"displayName":"Yiran Huang","photoUrl":"","userId":"05736232613090018980"}},"colab":{"base_uri":"https://localhost:8080/","height":153}},"source":["for i in range(1, 9):\n","  filename = '0' + str(i) + '.txt'\n","  filepath = PATH + filename\n","  outname = filename\n","  getTS(filepath, outname)\n","  uploaded = drive.CreateFile({'title': outname})\n","  uploaded.SetContentFile(outname)\n","  uploaded.Upload()\n","  print('Uploaded file with ID {}'.format(uploaded.get('id')))"],"execution_count":0,"outputs":[{"output_type":"stream","text":["Uploaded file with ID 1ezO7RXRVXarhG7lxpBTvuebi4dFmSNFH\n","Uploaded file with ID 1b0mC6VlFHyHb89ChUQGIQYRYSd5Ehs9k\n","Uploaded file with ID 1KRZWom8ltvOiBrdtrvlr9s2NXprxyI3-\n","Uploaded file with ID 1l3kXdnmnSXKKV97uRcKOm3OJKlq9beJO\n","Uploaded file with ID 1qJjNPku5BslmlwO2EyNIrra5xt7sPbr3\n","Uploaded file with ID 1mU1kFHyNkX1rkgi2cShNf5HnF0UBWX1u\n","Uploaded file with ID 1xXhbxHPihtxbVgx5Z82qlm61Klsg84C4\n","Uploaded file with ID 1dS68HpdVcUMx916DtUwYaQuqYXnbJs-5\n"],"name":"stdout"}]},{"cell_type":"markdown","metadata":{"id":"VZMx2C6FldDG","colab_type":"text"},"source":["Split video into several clips (Failed)"]},{"cell_type":"code","metadata":{"id":"y3QKS9T8CquV","colab_type":"code","colab":{"base_uri":"https://localhost:8080/","height":34},"outputId":"8ca29ae4-faa2-4d42-a482-967887cd8d60","executionInfo":{"status":"ok","timestamp":1585632557798,"user_tz":300,"elapsed":2579,"user":{"displayName":"Yiran Huang","photoUrl":"","userId":"05736232613090018980"}}},"source":["cd ./drive/My\\ Drive/636/data/part5_data/f_pos/"],"execution_count":2,"outputs":[{"output_type":"stream","text":["/content/drive/My Drive/636/data/part5_data/f_pos\n"],"name":"stdout"}]},{"cell_type":"code","metadata":{"id":"FqGUN3buCiBn","colab_type":"code","colab":{"base_uri":"https://localhost:8080/","height":1000},"outputId":"f70f46f6-5158-421f-bffa-568188646a31","executionInfo":{"status":"ok","timestamp":1585632609819,"user_tz":300,"elapsed":16791,"user":{"displayName":"Yiran Huang","photoUrl":"","userId":"05736232613090018980"}}},"source":["!ffmpeg -i 18.mp4 -ss 00:30 -t 10 18a.mp4"],"execution_count":3,"outputs":[{"output_type":"stream","text":["ERROR! Session/line number was not unique in database. History logging moved to new session 59\n","ffmpeg version 3.4.6-0ubuntu0.18.04.1 Copyright (c) 2000-2019 the FFmpeg developers\n","  built with gcc 7 (Ubuntu 7.3.0-16ubuntu3)\n","  configuration: --prefix=/usr --extra-version=0ubuntu0.18.04.1 --toolchain=hardened --libdir=/usr/lib/x86_64-linux-gnu --incdir=/usr/include/x86_64-linux-gnu --enable-gpl --disable-stripping --enable-avresample --enable-avisynth --enable-gnutls --enable-ladspa --enable-libass --enable-libbluray --enable-libbs2b --enable-libcaca --enable-libcdio --enable-libflite --enable-libfontconfig --enable-libfreetype --enable-libfribidi --enable-libgme --enable-libgsm --enable-libmp3lame --enable-libmysofa --enable-libopenjpeg --enable-libopenmpt --enable-libopus --enable-libpulse --enable-librubberband --enable-librsvg --enable-libshine --enable-libsnappy --enable-libsoxr --enable-libspeex --enable-libssh --enable-libtheora --enable-libtwolame --enable-libvorbis --enable-libvpx --enable-libwavpack --enable-libwebp --enable-libx265 --enable-libxml2 --enable-libxvid --enable-libzmq --enable-libzvbi --enable-omx --enable-openal --enable-opengl --enable-sdl2 --enable-libdc1394 --enable-libdrm --enable-libiec61883 --enable-chromaprint --enable-frei0r --enable-libopencv --enable-libx264 --enable-shared\n","  libavutil      55. 78.100 / 55. 78.100\n","  libavcodec     57.107.100 / 57.107.100\n","  libavformat    57. 83.100 / 57. 83.100\n","  libavdevice    57. 10.100 / 57. 10.100\n","  libavfilter     6.107.100 /  6.107.100\n","  libavresample   3.  7.  0 /  3.  7.  0\n","  libswscale      4.  8.100 /  4.  8.100\n","  libswresample   2.  9.100 /  2.  9.100\n","  libpostproc    54.  7.100 / 54.  7.100\n","Input #0, mov,mp4,m4a,3gp,3g2,mj2, from '18.mp4':\n","  Metadata:\n","    major_brand     : mp42\n","    minor_version   : 0\n","    compatible_brands: isommp42\n","    creation_time   : 2019-12-01T13:57:18.000000Z\n","  Duration: 00:03:04.16, start: 0.000000, bitrate: 776 kb/s\n","    Stream #0:0(und): Video: h264 (Main) (avc1 / 0x31637661), yuv420p(tv, bt709), 1280x720 [SAR 1:1 DAR 16:9], 643 kb/s, 29.97 fps, 29.97 tbr, 11988 tbn, 59.94 tbc (default)\n","    Metadata:\n","      creation_time   : 2019-12-01T13:57:18.000000Z\n","      handler_name    : ISO Media file produced by Google Inc. Created on: 12/01/2019.\n","    Stream #0:1(eng): Audio: aac (LC) (mp4a / 0x6134706D), 44100 Hz, stereo, fltp, 128 kb/s (default)\n","    Metadata:\n","      creation_time   : 2019-12-01T13:57:18.000000Z\n","      handler_name    : ISO Media file produced by Google Inc. Created on: 12/01/2019.\n","Stream mapping:\n","  Stream #0:0 -> #0:0 (h264 (native) -> h264 (libx264))\n","  Stream #0:1 -> #0:1 (aac (native) -> aac (native))\n","Press [q] to stop, [?] for help\n","\u001b[1;36m[libx264 @ 0x55b57d206800] \u001b[0musing SAR=1/1\n","\u001b[1;36m[libx264 @ 0x55b57d206800] \u001b[0musing cpu capabilities: MMX2 SSE2Fast SSSE3 SSE4.2 AVX FMA3 BMI2 AVX2\n","\u001b[1;36m[libx264 @ 0x55b57d206800] \u001b[0mprofile High, level 3.1\n","\u001b[1;36m[libx264 @ 0x55b57d206800] \u001b[0m264 - core 152 r2854 e9a5903 - H.264/MPEG-4 AVC codec - Copyleft 2003-2017 - http://www.videolan.org/x264.html - options: cabac=1 ref=3 deblock=1:0:0 analyse=0x3:0x113 me=hex subme=7 psy=1 psy_rd=1.00:0.00 mixed_ref=1 me_range=16 chroma_me=1 trellis=1 8x8dct=1 cqm=0 deadzone=21,11 fast_pskip=1 chroma_qp_offset=-2 threads=3 lookahead_threads=1 sliced_threads=0 nr=0 decimate=1 interlaced=0 bluray_compat=0 constrained_intra=0 bframes=3 b_pyramid=2 b_adapt=1 b_bias=0 direct=1 weightb=1 open_gop=0 weightp=2 keyint=250 keyint_min=25 scenecut=40 intra_refresh=0 rc_lookahead=40 rc=crf mbtree=1 crf=23.0 qcomp=0.60 qpmin=0 qpmax=69 qpstep=4 ip_ratio=1.40 aq=1:1.00\n","Output #0, mp4, to '18a.mp4':\n","  Metadata:\n","    major_brand     : mp42\n","    minor_version   : 0\n","    compatible_brands: isommp42\n","    encoder         : Lavf57.83.100\n","    Stream #0:0(und): Video: h264 (libx264) (avc1 / 0x31637661), yuv420p, 1280x720 [SAR 1:1 DAR 16:9], q=-1--1, 29.97 fps, 11988 tbn, 29.97 tbc (default)\n","    Metadata:\n","      creation_time   : 2019-12-01T13:57:18.000000Z\n","      handler_name    : ISO Media file produced by Google Inc. Created on: 12/01/2019.\n","      encoder         : Lavc57.107.100 libx264\n","    Side data:\n","      cpb: bitrate max/min/avg: 0/0/0 buffer size: 0 vbv_delay: -1\n","    Stream #0:1(eng): Audio: aac (LC) (mp4a / 0x6134706D), 44100 Hz, stereo, fltp, 128 kb/s (default)\n","    Metadata:\n","      creation_time   : 2019-12-01T13:57:18.000000Z\n","      handler_name    : ISO Media file produced by Google Inc. Created on: 12/01/2019.\n","      encoder         : Lavc57.107.100 aac\n","frame=  300 fps= 26 q=-1.0 Lsize=     999kB time=00:00:10.00 bitrate= 817.7kbits/s dup=1 drop=0 speed=0.877x    \n","video:829kB audio:158kB subtitle:0kB other streams:0kB global headers:0kB muxing overhead: 1.202211%\n","\u001b[1;36m[libx264 @ 0x55b57d206800] \u001b[0mframe I:3     Avg QP:21.58  size: 24031\n","\u001b[1;36m[libx264 @ 0x55b57d206800] \u001b[0mframe P:92    Avg QP:21.89  size:  6288\n","\u001b[1;36m[libx264 @ 0x55b57d206800] \u001b[0mframe B:205   Avg QP:22.95  size:   963\n","\u001b[1;36m[libx264 @ 0x55b57d206800] \u001b[0mconsecutive B-frames:  4.0% 10.7% 12.0% 73.3%\n","\u001b[1;36m[libx264 @ 0x55b57d206800] \u001b[0mmb I  I16..4: 18.1% 68.7% 13.1%\n","\u001b[1;36m[libx264 @ 0x55b57d206800] \u001b[0mmb P  I16..4:  1.5%  2.5%  0.4%  P16..4: 24.2%  7.2%  2.6%  0.0%  0.0%    skip:61.6%\n","\u001b[1;36m[libx264 @ 0x55b57d206800] \u001b[0mmb B  I16..4:  0.1%  0.1%  0.0%  B16..8: 17.6%  0.7%  0.1%  direct: 0.1%  skip:81.4%  L0:47.7% L1:50.5% BI: 1.8%\n","\u001b[1;36m[libx264 @ 0x55b57d206800] \u001b[0m8x8 transform intra:61.3% inter:73.1%\n","\u001b[1;36m[libx264 @ 0x55b57d206800] \u001b[0mcoded y,uvDC,uvAC intra: 27.2% 33.9% 8.8% inter: 3.0% 3.4% 0.2%\n","\u001b[1;36m[libx264 @ 0x55b57d206800] \u001b[0mi16 v,h,dc,p: 27% 26% 11% 36%\n","\u001b[1;36m[libx264 @ 0x55b57d206800] \u001b[0mi8 v,h,dc,ddl,ddr,vr,hd,vl,hu: 32% 14% 38%  3%  2%  3%  2%  4%  3%\n","\u001b[1;36m[libx264 @ 0x55b57d206800] \u001b[0mi4 v,h,dc,ddl,ddr,vr,hd,vl,hu: 33% 18% 13%  6%  5%  7%  5%  9%  4%\n","\u001b[1;36m[libx264 @ 0x55b57d206800] \u001b[0mi8c dc,h,v,p: 65% 14% 16%  5%\n","\u001b[1;36m[libx264 @ 0x55b57d206800] \u001b[0mWeighted P-Frames: Y:7.6% UV:1.1%\n","\u001b[1;36m[libx264 @ 0x55b57d206800] \u001b[0mref P L0: 69.2% 11.6% 15.0%  4.0%  0.2%\n","\u001b[1;36m[libx264 @ 0x55b57d206800] \u001b[0mref B L0: 90.0%  8.8%  1.2%\n","\u001b[1;36m[libx264 @ 0x55b57d206800] \u001b[0mref B L1: 97.8%  2.2%\n","\u001b[1;36m[libx264 @ 0x55b57d206800] \u001b[0mkb/s:677.69\n","\u001b[1;36m[aac @ 0x55b57d207700] \u001b[0mQavg: 476.950\n"],"name":"stdout"}]},{"cell_type":"code","metadata":{"id":"ro1blGsKEXOa","colab_type":"code","colab":{"base_uri":"https://localhost:8080/","height":1000},"outputId":"cdbfd5a5-302b-4803-a5b7-ce7fa3cceaab","executionInfo":{"status":"ok","timestamp":1585632654163,"user_tz":300,"elapsed":17157,"user":{"displayName":"Yiran Huang","photoUrl":"","userId":"05736232613090018980"}}},"source":["!ffmpeg -i 18.mp4 -ss 02:19 -t 6 18b.mp4"],"execution_count":4,"outputs":[{"output_type":"stream","text":["ffmpeg version 3.4.6-0ubuntu0.18.04.1 Copyright (c) 2000-2019 the FFmpeg developers\n","  built with gcc 7 (Ubuntu 7.3.0-16ubuntu3)\n","  configuration: --prefix=/usr --extra-version=0ubuntu0.18.04.1 --toolchain=hardened --libdir=/usr/lib/x86_64-linux-gnu --incdir=/usr/include/x86_64-linux-gnu --enable-gpl --disable-stripping --enable-avresample --enable-avisynth --enable-gnutls --enable-ladspa --enable-libass --enable-libbluray --enable-libbs2b --enable-libcaca --enable-libcdio --enable-libflite --enable-libfontconfig --enable-libfreetype --enable-libfribidi --enable-libgme --enable-libgsm --enable-libmp3lame --enable-libmysofa --enable-libopenjpeg --enable-libopenmpt --enable-libopus --enable-libpulse --enable-librubberband --enable-librsvg --enable-libshine --enable-libsnappy --enable-libsoxr --enable-libspeex --enable-libssh --enable-libtheora --enable-libtwolame --enable-libvorbis --enable-libvpx --enable-libwavpack --enable-libwebp --enable-libx265 --enable-libxml2 --enable-libxvid --enable-libzmq --enable-libzvbi --enable-omx --enable-openal --enable-opengl --enable-sdl2 --enable-libdc1394 --enable-libdrm --enable-libiec61883 --enable-chromaprint --enable-frei0r --enable-libopencv --enable-libx264 --enable-shared\n","  libavutil      55. 78.100 / 55. 78.100\n","  libavcodec     57.107.100 / 57.107.100\n","  libavformat    57. 83.100 / 57. 83.100\n","  libavdevice    57. 10.100 / 57. 10.100\n","  libavfilter     6.107.100 /  6.107.100\n","  libavresample   3.  7.  0 /  3.  7.  0\n","  libswscale      4.  8.100 /  4.  8.100\n","  libswresample   2.  9.100 /  2.  9.100\n","  libpostproc    54.  7.100 / 54.  7.100\n","Input #0, mov,mp4,m4a,3gp,3g2,mj2, from '18.mp4':\n","  Metadata:\n","    major_brand     : mp42\n","    minor_version   : 0\n","    compatible_brands: isommp42\n","    creation_time   : 2019-12-01T13:57:18.000000Z\n","  Duration: 00:03:04.16, start: 0.000000, bitrate: 776 kb/s\n","    Stream #0:0(und): Video: h264 (Main) (avc1 / 0x31637661), yuv420p(tv, bt709), 1280x720 [SAR 1:1 DAR 16:9], 643 kb/s, 29.97 fps, 29.97 tbr, 11988 tbn, 59.94 tbc (default)\n","    Metadata:\n","      creation_time   : 2019-12-01T13:57:18.000000Z\n","      handler_name    : ISO Media file produced by Google Inc. Created on: 12/01/2019.\n","    Stream #0:1(eng): Audio: aac (LC) (mp4a / 0x6134706D), 44100 Hz, stereo, fltp, 128 kb/s (default)\n","    Metadata:\n","      creation_time   : 2019-12-01T13:57:18.000000Z\n","      handler_name    : ISO Media file produced by Google Inc. Created on: 12/01/2019.\n","Stream mapping:\n","  Stream #0:0 -> #0:0 (h264 (native) -> h264 (libx264))\n","  Stream #0:1 -> #0:1 (aac (native) -> aac (native))\n","Press [q] to stop, [?] for help\n","\u001b[1;36m[libx264 @ 0x55f294ea2800] \u001b[0musing SAR=1/1\n","\u001b[1;36m[libx264 @ 0x55f294ea2800] \u001b[0musing cpu capabilities: MMX2 SSE2Fast SSSE3 SSE4.2 AVX FMA3 BMI2 AVX2\n","\u001b[1;36m[libx264 @ 0x55f294ea2800] \u001b[0mprofile High, level 3.1\n","\u001b[1;36m[libx264 @ 0x55f294ea2800] \u001b[0m264 - core 152 r2854 e9a5903 - H.264/MPEG-4 AVC codec - Copyleft 2003-2017 - http://www.videolan.org/x264.html - options: cabac=1 ref=3 deblock=1:0:0 analyse=0x3:0x113 me=hex subme=7 psy=1 psy_rd=1.00:0.00 mixed_ref=1 me_range=16 chroma_me=1 trellis=1 8x8dct=1 cqm=0 deadzone=21,11 fast_pskip=1 chroma_qp_offset=-2 threads=3 lookahead_threads=1 sliced_threads=0 nr=0 decimate=1 interlaced=0 bluray_compat=0 constrained_intra=0 bframes=3 b_pyramid=2 b_adapt=1 b_bias=0 direct=1 weightb=1 open_gop=0 weightp=2 keyint=250 keyint_min=25 scenecut=40 intra_refresh=0 rc_lookahead=40 rc=crf mbtree=1 crf=23.0 qcomp=0.60 qpmin=0 qpmax=69 qpstep=4 ip_ratio=1.40 aq=1:1.00\n","Output #0, mp4, to '18b.mp4':\n","  Metadata:\n","    major_brand     : mp42\n","    minor_version   : 0\n","    compatible_brands: isommp42\n","    encoder         : Lavf57.83.100\n","    Stream #0:0(und): Video: h264 (libx264) (avc1 / 0x31637661), yuv420p, 1280x720 [SAR 1:1 DAR 16:9], q=-1--1, 29.97 fps, 11988 tbn, 29.97 tbc (default)\n","    Metadata:\n","      creation_time   : 2019-12-01T13:57:18.000000Z\n","      handler_name    : ISO Media file produced by Google Inc. Created on: 12/01/2019.\n","      encoder         : Lavc57.107.100 libx264\n","    Side data:\n","      cpb: bitrate max/min/avg: 0/0/0 buffer size: 0 vbv_delay: -1\n","    Stream #0:1(eng): Audio: aac (LC) (mp4a / 0x6134706D), 44100 Hz, stereo, fltp, 128 kb/s (default)\n","    Metadata:\n","      creation_time   : 2019-12-01T13:57:18.000000Z\n","      handler_name    : ISO Media file produced by Google Inc. Created on: 12/01/2019.\n","      encoder         : Lavc57.107.100 aac\n","frame=  180 fps= 12 q=-1.0 Lsize=     574kB time=00:00:06.01 bitrate= 781.6kbits/s speed=0.413x    \n","video:471kB audio:95kB subtitle:0kB other streams:0kB global headers:0kB muxing overhead: 1.352999%\n","\u001b[1;36m[libx264 @ 0x55f294ea2800] \u001b[0mframe I:1     Avg QP:20.47  size: 26031\n","\u001b[1;36m[libx264 @ 0x55f294ea2800] \u001b[0mframe P:52    Avg QP:21.31  size:  6257\n","\u001b[1;36m[libx264 @ 0x55f294ea2800] \u001b[0mframe B:127   Avg QP:23.69  size:  1025\n","\u001b[1;36m[libx264 @ 0x55f294ea2800] \u001b[0mconsecutive B-frames:  2.2%  6.7% 13.3% 77.8%\n","\u001b[1;36m[libx264 @ 0x55f294ea2800] \u001b[0mmb I  I16..4: 10.8% 79.7%  9.5%\n","\u001b[1;36m[libx264 @ 0x55f294ea2800] \u001b[0mmb P  I16..4:  1.2%  3.0%  0.4%  P16..4: 23.6%  7.6%  2.7%  0.0%  0.0%    skip:61.6%\n","\u001b[1;36m[libx264 @ 0x55f294ea2800] \u001b[0mmb B  I16..4:  0.1%  0.1%  0.0%  B16..8: 18.2%  0.8%  0.1%  direct: 0.1%  skip:80.6%  L0:46.8% L1:51.1% BI: 2.1%\n","\u001b[1;36m[libx264 @ 0x55f294ea2800] \u001b[0m8x8 transform intra:68.8% inter:75.2%\n","\u001b[1;36m[libx264 @ 0x55f294ea2800] \u001b[0mcoded y,uvDC,uvAC intra: 26.0% 34.8% 9.9% inter: 2.8% 3.0% 0.1%\n","\u001b[1;36m[libx264 @ 0x55f294ea2800] \u001b[0mi16 v,h,dc,p: 29% 28% 12% 31%\n","\u001b[1;36m[libx264 @ 0x55f294ea2800] \u001b[0mi8 v,h,dc,ddl,ddr,vr,hd,vl,hu: 24% 13% 46%  3%  2%  2%  3%  3%  3%\n","\u001b[1;36m[libx264 @ 0x55f294ea2800] \u001b[0mi4 v,h,dc,ddl,ddr,vr,hd,vl,hu: 27% 20% 17%  6%  6%  6%  6%  8%  4%\n","\u001b[1;36m[libx264 @ 0x55f294ea2800] \u001b[0mi8c dc,h,v,p: 66% 15% 14%  5%\n","\u001b[1;36m[libx264 @ 0x55f294ea2800] \u001b[0mWeighted P-Frames: Y:7.7% UV:3.8%\n","\u001b[1;36m[libx264 @ 0x55f294ea2800] \u001b[0mref P L0: 62.2% 16.2% 16.0%  5.3%  0.3%\n","\u001b[1;36m[libx264 @ 0x55f294ea2800] \u001b[0mref B L0: 88.3%  9.8%  1.9%\n","\u001b[1;36m[libx264 @ 0x55f294ea2800] \u001b[0mref B L1: 97.9%  2.1%\n","\u001b[1;36m[libx264 @ 0x55f294ea2800] \u001b[0mkb/s:641.43\n","\u001b[1;36m[aac @ 0x55f294ea3700] \u001b[0mQavg: 411.519\n"],"name":"stdout"}]},{"cell_type":"code","metadata":{"id":"cI_6E0w7EgTG","colab_type":"code","colab":{"base_uri":"https://localhost:8080/","height":1000},"outputId":"df07ef14-8458-4f4f-a511-238d3ee5c694","executionInfo":{"status":"ok","timestamp":1585632673529,"user_tz":300,"elapsed":14588,"user":{"displayName":"Yiran Huang","photoUrl":"","userId":"05736232613090018980"}}},"source":["!ffmpeg -i 19.mp4 -ss 00:16 -t 6 19a.mp4"],"execution_count":5,"outputs":[{"output_type":"stream","text":["ffmpeg version 3.4.6-0ubuntu0.18.04.1 Copyright (c) 2000-2019 the FFmpeg developers\n","  built with gcc 7 (Ubuntu 7.3.0-16ubuntu3)\n","  configuration: --prefix=/usr --extra-version=0ubuntu0.18.04.1 --toolchain=hardened --libdir=/usr/lib/x86_64-linux-gnu --incdir=/usr/include/x86_64-linux-gnu --enable-gpl --disable-stripping --enable-avresample --enable-avisynth --enable-gnutls --enable-ladspa --enable-libass --enable-libbluray --enable-libbs2b --enable-libcaca --enable-libcdio --enable-libflite --enable-libfontconfig --enable-libfreetype --enable-libfribidi --enable-libgme --enable-libgsm --enable-libmp3lame --enable-libmysofa --enable-libopenjpeg --enable-libopenmpt --enable-libopus --enable-libpulse --enable-librubberband --enable-librsvg --enable-libshine --enable-libsnappy --enable-libsoxr --enable-libspeex --enable-libssh --enable-libtheora --enable-libtwolame --enable-libvorbis --enable-libvpx --enable-libwavpack --enable-libwebp --enable-libx265 --enable-libxml2 --enable-libxvid --enable-libzmq --enable-libzvbi --enable-omx --enable-openal --enable-opengl --enable-sdl2 --enable-libdc1394 --enable-libdrm --enable-libiec61883 --enable-chromaprint --enable-frei0r --enable-libopencv --enable-libx264 --enable-shared\n","  libavutil      55. 78.100 / 55. 78.100\n","  libavcodec     57.107.100 / 57.107.100\n","  libavformat    57. 83.100 / 57. 83.100\n","  libavdevice    57. 10.100 / 57. 10.100\n","  libavfilter     6.107.100 /  6.107.100\n","  libavresample   3.  7.  0 /  3.  7.  0\n","  libswscale      4.  8.100 /  4.  8.100\n","  libswresample   2.  9.100 /  2.  9.100\n","  libpostproc    54.  7.100 / 54.  7.100\n","Input #0, mov,mp4,m4a,3gp,3g2,mj2, from '19.mp4':\n","  Metadata:\n","    major_brand     : mp42\n","    minor_version   : 0\n","    compatible_brands: isommp42\n","    creation_time   : 2018-01-19T06:12:11.000000Z\n","  Duration: 00:01:30.09, start: 0.000000, bitrate: 1379 kb/s\n","    Stream #0:0(und): Video: h264 (Main) (avc1 / 0x31637661), yuv420p(tv, bt709), 1280x720 [SAR 1:1 DAR 16:9], 1249 kb/s, 23.98 fps, 23.98 tbr, 90k tbn, 47.95 tbc (default)\n","    Metadata:\n","      creation_time   : 2018-01-19T06:12:11.000000Z\n","      handler_name    : ISO Media file produced by Google Inc. Created on: 01/18/2018.\n","    Stream #0:1(und): Audio: aac (LC) (mp4a / 0x6134706D), 44100 Hz, stereo, fltp, 125 kb/s (default)\n","    Metadata:\n","      creation_time   : 2018-01-19T06:12:11.000000Z\n","      handler_name    : ISO Media file produced by Google Inc. Created on: 01/18/2018.\n","Stream mapping:\n","  Stream #0:0 -> #0:0 (h264 (native) -> h264 (libx264))\n","  Stream #0:1 -> #0:1 (aac (native) -> aac (native))\n","Press [q] to stop, [?] for help\n","\u001b[1;36m[libx264 @ 0x562d24cd8800] \u001b[0musing SAR=1/1\n","\u001b[1;36m[libx264 @ 0x562d24cd8800] \u001b[0musing cpu capabilities: MMX2 SSE2Fast SSSE3 SSE4.2 AVX FMA3 BMI2 AVX2\n","\u001b[1;36m[libx264 @ 0x562d24cd8800] \u001b[0mprofile High, level 3.1\n","\u001b[1;36m[libx264 @ 0x562d24cd8800] \u001b[0m264 - core 152 r2854 e9a5903 - H.264/MPEG-4 AVC codec - Copyleft 2003-2017 - http://www.videolan.org/x264.html - options: cabac=1 ref=3 deblock=1:0:0 analyse=0x3:0x113 me=hex subme=7 psy=1 psy_rd=1.00:0.00 mixed_ref=1 me_range=16 chroma_me=1 trellis=1 8x8dct=1 cqm=0 deadzone=21,11 fast_pskip=1 chroma_qp_offset=-2 threads=3 lookahead_threads=1 sliced_threads=0 nr=0 decimate=1 interlaced=0 bluray_compat=0 constrained_intra=0 bframes=3 b_pyramid=2 b_adapt=1 b_bias=0 direct=1 weightb=1 open_gop=0 weightp=2 keyint=250 keyint_min=23 scenecut=40 intra_refresh=0 rc_lookahead=40 rc=crf mbtree=1 crf=23.0 qcomp=0.60 qpmin=0 qpmax=69 qpstep=4 ip_ratio=1.40 aq=1:1.00\n","Output #0, mp4, to '19a.mp4':\n","  Metadata:\n","    major_brand     : mp42\n","    minor_version   : 0\n","    compatible_brands: isommp42\n","    encoder         : Lavf57.83.100\n","    Stream #0:0(und): Video: h264 (libx264) (avc1 / 0x31637661), yuv420p, 1280x720 [SAR 1:1 DAR 16:9], q=-1--1, 23.98 fps, 24k tbn, 23.98 tbc (default)\n","    Metadata:\n","      creation_time   : 2018-01-19T06:12:11.000000Z\n","      handler_name    : ISO Media file produced by Google Inc. Created on: 01/18/2018.\n","      encoder         : Lavc57.107.100 libx264\n","    Side data:\n","      cpb: bitrate max/min/avg: 0/0/0 buffer size: 0 vbv_delay: -1\n","    Stream #0:1(und): Audio: aac (LC) (mp4a / 0x6134706D), 44100 Hz, stereo, fltp, 128 kb/s (default)\n","    Metadata:\n","      creation_time   : 2018-01-19T06:12:11.000000Z\n","      handler_name    : ISO Media file produced by Google Inc. Created on: 01/18/2018.\n","      encoder         : Lavc57.107.100 aac\n","frame=  144 fps= 14 q=-1.0 Lsize=    1441kB time=00:00:06.01 bitrate=1962.9kbits/s speed=0.575x    \n","video:1341kB audio:94kB subtitle:0kB other streams:0kB global headers:0kB muxing overhead: 0.401447%\n","\u001b[1;36m[libx264 @ 0x562d24cd8800] \u001b[0mframe I:1     Avg QP:23.92  size: 36262\n","\u001b[1;36m[libx264 @ 0x562d24cd8800] \u001b[0mframe P:52    Avg QP:22.84  size: 17199\n","\u001b[1;36m[libx264 @ 0x562d24cd8800] \u001b[0mframe B:91    Avg QP:26.10  size:  4855\n","\u001b[1;36m[libx264 @ 0x562d24cd8800] \u001b[0mconsecutive B-frames:  1.4% 33.3% 29.2% 36.1%\n","\u001b[1;36m[libx264 @ 0x562d24cd8800] \u001b[0mmb I  I16..4: 41.6% 32.9% 25.5%\n","\u001b[1;36m[libx264 @ 0x562d24cd8800] \u001b[0mmb P  I16..4: 15.1% 13.3%  2.8%  P16..4: 37.0% 11.6%  3.3%  0.0%  0.0%    skip:17.0%\n","\u001b[1;36m[libx264 @ 0x562d24cd8800] \u001b[0mmb B  I16..4:  1.5%  1.5%  0.2%  B16..8: 34.6%  5.2%  0.8%  direct: 1.7%  skip:54.5%  L0:43.3% L1:50.8% BI: 5.9%\n","\u001b[1;36m[libx264 @ 0x562d24cd8800] \u001b[0m8x8 transform intra:42.6% inter:66.0%\n","\u001b[1;36m[libx264 @ 0x562d24cd8800] \u001b[0mcoded y,uvDC,uvAC intra: 27.3% 51.6% 9.3% inter: 9.8% 13.1% 0.4%\n","\u001b[1;36m[libx264 @ 0x562d24cd8800] \u001b[0mi16 v,h,dc,p: 18% 22%  7% 53%\n","\u001b[1;36m[libx264 @ 0x562d24cd8800] \u001b[0mi8 v,h,dc,ddl,ddr,vr,hd,vl,hu: 29% 22% 22%  4%  5%  5%  5%  4%  4%\n","\u001b[1;36m[libx264 @ 0x562d24cd8800] \u001b[0mi4 v,h,dc,ddl,ddr,vr,hd,vl,hu: 25% 20% 15%  5%  8%  8%  7%  6%  4%\n","\u001b[1;36m[libx264 @ 0x562d24cd8800] \u001b[0mi8c dc,h,v,p: 45% 20% 22% 13%\n","\u001b[1;36m[libx264 @ 0x562d24cd8800] \u001b[0mWeighted P-Frames: Y:1.9% UV:0.0%\n","\u001b[1;36m[libx264 @ 0x562d24cd8800] \u001b[0mref P L0: 70.6% 17.9%  7.9%  3.5%  0.0%\n","\u001b[1;36m[libx264 @ 0x562d24cd8800] \u001b[0mref B L0: 90.9%  8.1%  1.0%\n","\u001b[1;36m[libx264 @ 0x562d24cd8800] \u001b[0mref B L1: 98.8%  1.2%\n","\u001b[1;36m[libx264 @ 0x562d24cd8800] \u001b[0mkb/s:1828.04\n","\u001b[1;36m[aac @ 0x562d24cd9700] \u001b[0mQavg: 382.011\n"],"name":"stdout"}]},{"cell_type":"code","metadata":{"id":"9VP9g_0_ElAl","colab_type":"code","colab":{"base_uri":"https://localhost:8080/","height":1000},"outputId":"84fd41f2-9dc0-47cc-ac65-f20ce2d00a33","executionInfo":{"status":"ok","timestamp":1585632693997,"user_tz":300,"elapsed":15406,"user":{"displayName":"Yiran Huang","photoUrl":"","userId":"05736232613090018980"}}},"source":["!ffmpeg -i 19.mp4 -ss 00:38 -t 7 19b.mp4"],"execution_count":6,"outputs":[{"output_type":"stream","text":["ffmpeg version 3.4.6-0ubuntu0.18.04.1 Copyright (c) 2000-2019 the FFmpeg developers\n","  built with gcc 7 (Ubuntu 7.3.0-16ubuntu3)\n","  configuration: --prefix=/usr --extra-version=0ubuntu0.18.04.1 --toolchain=hardened --libdir=/usr/lib/x86_64-linux-gnu --incdir=/usr/include/x86_64-linux-gnu --enable-gpl --disable-stripping --enable-avresample --enable-avisynth --enable-gnutls --enable-ladspa --enable-libass --enable-libbluray --enable-libbs2b --enable-libcaca --enable-libcdio --enable-libflite --enable-libfontconfig --enable-libfreetype --enable-libfribidi --enable-libgme --enable-libgsm --enable-libmp3lame --enable-libmysofa --enable-libopenjpeg --enable-libopenmpt --enable-libopus --enable-libpulse --enable-librubberband --enable-librsvg --enable-libshine --enable-libsnappy --enable-libsoxr --enable-libspeex --enable-libssh --enable-libtheora --enable-libtwolame --enable-libvorbis --enable-libvpx --enable-libwavpack --enable-libwebp --enable-libx265 --enable-libxml2 --enable-libxvid --enable-libzmq --enable-libzvbi --enable-omx --enable-openal --enable-opengl --enable-sdl2 --enable-libdc1394 --enable-libdrm --enable-libiec61883 --enable-chromaprint --enable-frei0r --enable-libopencv --enable-libx264 --enable-shared\n","  libavutil      55. 78.100 / 55. 78.100\n","  libavcodec     57.107.100 / 57.107.100\n","  libavformat    57. 83.100 / 57. 83.100\n","  libavdevice    57. 10.100 / 57. 10.100\n","  libavfilter     6.107.100 /  6.107.100\n","  libavresample   3.  7.  0 /  3.  7.  0\n","  libswscale      4.  8.100 /  4.  8.100\n","  libswresample   2.  9.100 /  2.  9.100\n","  libpostproc    54.  7.100 / 54.  7.100\n","Input #0, mov,mp4,m4a,3gp,3g2,mj2, from '19.mp4':\n","  Metadata:\n","    major_brand     : mp42\n","    minor_version   : 0\n","    compatible_brands: isommp42\n","    creation_time   : 2018-01-19T06:12:11.000000Z\n","  Duration: 00:01:30.09, start: 0.000000, bitrate: 1379 kb/s\n","    Stream #0:0(und): Video: h264 (Main) (avc1 / 0x31637661), yuv420p(tv, bt709), 1280x720 [SAR 1:1 DAR 16:9], 1249 kb/s, 23.98 fps, 23.98 tbr, 90k tbn, 47.95 tbc (default)\n","    Metadata:\n","      creation_time   : 2018-01-19T06:12:11.000000Z\n","      handler_name    : ISO Media file produced by Google Inc. Created on: 01/18/2018.\n","    Stream #0:1(und): Audio: aac (LC) (mp4a / 0x6134706D), 44100 Hz, stereo, fltp, 125 kb/s (default)\n","    Metadata:\n","      creation_time   : 2018-01-19T06:12:11.000000Z\n","      handler_name    : ISO Media file produced by Google Inc. Created on: 01/18/2018.\n","Stream mapping:\n","  Stream #0:0 -> #0:0 (h264 (native) -> h264 (libx264))\n","  Stream #0:1 -> #0:1 (aac (native) -> aac (native))\n","Press [q] to stop, [?] for help\n","\u001b[1;36m[libx264 @ 0x55d6595ce800] \u001b[0musing SAR=1/1\n","\u001b[1;36m[libx264 @ 0x55d6595ce800] \u001b[0musing cpu capabilities: MMX2 SSE2Fast SSSE3 SSE4.2 AVX FMA3 BMI2 AVX2\n","\u001b[1;36m[libx264 @ 0x55d6595ce800] \u001b[0mprofile High, level 3.1\n","\u001b[1;36m[libx264 @ 0x55d6595ce800] \u001b[0m264 - core 152 r2854 e9a5903 - H.264/MPEG-4 AVC codec - Copyleft 2003-2017 - http://www.videolan.org/x264.html - options: cabac=1 ref=3 deblock=1:0:0 analyse=0x3:0x113 me=hex subme=7 psy=1 psy_rd=1.00:0.00 mixed_ref=1 me_range=16 chroma_me=1 trellis=1 8x8dct=1 cqm=0 deadzone=21,11 fast_pskip=1 chroma_qp_offset=-2 threads=3 lookahead_threads=1 sliced_threads=0 nr=0 decimate=1 interlaced=0 bluray_compat=0 constrained_intra=0 bframes=3 b_pyramid=2 b_adapt=1 b_bias=0 direct=1 weightb=1 open_gop=0 weightp=2 keyint=250 keyint_min=23 scenecut=40 intra_refresh=0 rc_lookahead=40 rc=crf mbtree=1 crf=23.0 qcomp=0.60 qpmin=0 qpmax=69 qpstep=4 ip_ratio=1.40 aq=1:1.00\n","Output #0, mp4, to '19b.mp4':\n","  Metadata:\n","    major_brand     : mp42\n","    minor_version   : 0\n","    compatible_brands: isommp42\n","    encoder         : Lavf57.83.100\n","    Stream #0:0(und): Video: h264 (libx264) (avc1 / 0x31637661), yuv420p, 1280x720 [SAR 1:1 DAR 16:9], q=-1--1, 23.98 fps, 24k tbn, 23.98 tbc (default)\n","    Metadata:\n","      creation_time   : 2018-01-19T06:12:11.000000Z\n","      handler_name    : ISO Media file produced by Google Inc. Created on: 01/18/2018.\n","      encoder         : Lavc57.107.100 libx264\n","    Side data:\n","      cpb: bitrate max/min/avg: 0/0/0 buffer size: 0 vbv_delay: -1\n","    Stream #0:1(und): Audio: aac (LC) (mp4a / 0x6134706D), 44100 Hz, stereo, fltp, 128 kb/s (default)\n","    Metadata:\n","      creation_time   : 2018-01-19T06:12:11.000000Z\n","      handler_name    : ISO Media file produced by Google Inc. Created on: 01/18/2018.\n","      encoder         : Lavc57.107.100 aac\n","frame=  168 fps= 12 q=-1.0 Lsize=    1324kB time=00:00:07.01 bitrate=1546.5kbits/s dup=1 drop=0 speed=0.519x    \n","video:1207kB audio:110kB subtitle:0kB other streams:0kB global headers:0kB muxing overhead: 0.486276%\n","\u001b[1;36m[libx264 @ 0x55d6595ce800] \u001b[0mframe I:1     Avg QP:22.48  size: 29316\n","\u001b[1;36m[libx264 @ 0x55d6595ce800] \u001b[0mframe P:61    Avg QP:22.19  size: 13547\n","\u001b[1;36m[libx264 @ 0x55d6595ce800] \u001b[0mframe B:106   Avg QP:24.75  size:  3586\n","\u001b[1;36m[libx264 @ 0x55d6595ce800] \u001b[0mconsecutive B-frames:  1.2% 27.4% 50.0% 21.4%\n","\u001b[1;36m[libx264 @ 0x55d6595ce800] \u001b[0mmb I  I16..4: 37.5% 55.5%  7.0%\n","\u001b[1;36m[libx264 @ 0x55d6595ce800] \u001b[0mmb P  I16..4: 15.7% 11.1%  1.4%  P16..4: 40.1% 10.8%  2.5%  0.0%  0.0%    skip:18.3%\n","\u001b[1;36m[libx264 @ 0x55d6595ce800] \u001b[0mmb B  I16..4:  1.1%  0.8%  0.1%  B16..8: 34.0%  3.6%  0.3%  direct: 1.3%  skip:58.8%  L0:39.3% L1:55.9% BI: 4.8%\n","\u001b[1;36m[libx264 @ 0x55d6595ce800] \u001b[0m8x8 transform intra:40.4% inter:73.1%\n","\u001b[1;36m[libx264 @ 0x55d6595ce800] \u001b[0mcoded y,uvDC,uvAC intra: 20.4% 50.7% 6.1% inter: 7.6% 12.6% 0.1%\n","\u001b[1;36m[libx264 @ 0x55d6595ce800] \u001b[0mi16 v,h,dc,p: 22% 17%  7% 55%\n","\u001b[1;36m[libx264 @ 0x55d6595ce800] \u001b[0mi8 v,h,dc,ddl,ddr,vr,hd,vl,hu: 33% 20% 24%  4%  4%  4%  4%  4%  3%\n","\u001b[1;36m[libx264 @ 0x55d6595ce800] \u001b[0mi4 v,h,dc,ddl,ddr,vr,hd,vl,hu: 25% 18% 18%  6%  8% 10%  6%  6%  4%\n","\u001b[1;36m[libx264 @ 0x55d6595ce800] \u001b[0mi8c dc,h,v,p: 43% 17% 23% 16%\n","\u001b[1;36m[libx264 @ 0x55d6595ce800] \u001b[0mWeighted P-Frames: Y:4.9% UV:0.0%\n","\u001b[1;36m[libx264 @ 0x55d6595ce800] \u001b[0mref P L0: 70.2% 16.5%  9.2%  4.0%  0.1%\n","\u001b[1;36m[libx264 @ 0x55d6595ce800] \u001b[0mref B L0: 89.6%  9.3%  1.1%\n","\u001b[1;36m[libx264 @ 0x55d6595ce800] \u001b[0mref B L1: 99.4%  0.6%\n","\u001b[1;36m[libx264 @ 0x55d6595ce800] \u001b[0mkb/s:1410.86\n","\u001b[1;36m[aac @ 0x55d6595cf700] \u001b[0mQavg: 358.069\n"],"name":"stdout"}]},{"cell_type":"code","metadata":{"id":"5clFL_GemopT","colab_type":"code","colab":{}},"source":["VIDEOPATH = '/content/drive/My Drive/636/data/raw_video'"],"execution_count":0,"outputs":[]},{"cell_type":"code","metadata":{"id":"unqc63C5t-jG","colab_type":"code","colab":{}},"source":["# from moviepy.video.io.ffmpeg_tools import ffmpeg_extract_subclip\n","# ffmpeg_extract_subclip('00.mp4', 36, 38, targetname='test.mp4')\n","# !ffmpeg -i 00.mp4 -ss 00:00:00 -t 2.36 test0.mp4\n","\n","# !chmod u+x download.sh"],"execution_count":0,"outputs":[]},{"cell_type":"markdown","metadata":{"id":"QPaJTfKS9XJk","colab_type":"text"},"source":["Split video into several clips (manual)"]},{"cell_type":"code","metadata":{"id":"M-8gjH0cDScX","colab_type":"code","colab":{}},"source":["# !chmod u+x clip.sh\n","# !./clip.sh"],"execution_count":0,"outputs":[]},{"cell_type":"code","metadata":{"id":"ZTc7MsKKIPTS","colab_type":"code","colab":{}},"source":["# for i in range(1, 9):\n","#   filename = 'frames' + str(i) + '.zip'\n","#   uploaded = drive.CreateFile({'title': filename})\n","#   uploaded.SetContentFile(filename)\n","#   uploaded.Upload()\n","#   print('Uploaded {} with ID {}'.format(filename, uploaded.get('id')))"],"execution_count":0,"outputs":[]}]}